<svg xmlns="http://www.w3.org/2000/svg" version="1.1" xmlns:xlink="http://www.w3.org/1999/xlink" xmlns:svgjs="http://svgjs.com/svgjs" width="1440" height="560" preserveAspectRatio="none" viewBox="0 0 1440 560"><g mask="url(&quot;#SvgjsMask1024&quot;)" fill="none"><rect width="1440" height="560" x="0" y="0" fill="#0e2a47"></rect><path d="M0,493.634C90.077,482.164,145.391,394.146,222.88,346.808C302.794,297.989,411.419,289.727,462.383,211.163C514.956,130.12,514.517,23.366,493.922,-71.015C474.101,-161.848,417.557,-239.385,350.105,-303.367C287.058,-363.17,207.744,-399.128,123.908,-421.993C41.362,-444.506,-44.015,-453.139,-127.308,-433.572C-213.752,-413.265,-291.906,-369.799,-356.705,-309.087C-426.691,-243.516,-512.908,-169.447,-511.566,-73.552C-510.215,23.005,-394.443,74.1,-350.141,159.904C-308.985,239.616,-327.548,346.735,-262.61,408.629C-194.632,473.421,-93.158,505.497,0,493.634" fill="#0d2843"></path><path d="M1440 1090.472C1541.875 1110.72 1647.698 1075.0520000000001 1737.846 1023.4580000000001 1830.932 970.183 1932.479 900.178 1955.518 795.429 1978.3310000000001 691.704 1885.7269999999999 601.625 1852.835 500.64300000000003 1826.758 420.58500000000004 1836.6979999999999 327.663 1782.24 263.447 1727.584 198.997 1633.221 194.933 1559.124 154.303 1458.988 99.39499999999998 1380.77-46.98400000000004 1270.538-17.135999999999967 1161.192 12.47199999999998 1179.931 185.089 1111.636 275.471 1050.138 356.85699999999997 920.182 382.933 893.781 481.46500000000003 867.244 580.504 918.926 687.437 978.9870000000001 770.538 1033.594 846.0930000000001 1133.038 865.321 1209.625 918.471 1289.9850000000001 974.239 1344.062 1071.404 1440 1090.472" fill="#0f2c4b"></path></g><defs><mask id="SvgjsMask1024"><rect width="1440" height="560" fill="#ffffff"></rect></mask></defs></svg>