<?xml version="1.0" encoding="UTF-8"?>
<svg width="22px" height="22px" viewBox="0 0 22 22" version="1.1" xmlns="http://www.w3.org/2000/svg" xmlns:xlink="http://www.w3.org/1999/xlink">
    <!-- Generator: sketchtool 51.3 (57544) - http://www.bohemiancoding.com/sketch -->
    <title>342DC43B-C295-411C-8B4A-577BD7118DE4</title>
    <desc>Created with sketchtool.</desc>
    <defs></defs>
    <g id="Desktop" stroke="none" stroke-width="1" fill="none" fill-rule="evenodd">
        <g id="Mutlubiev---Desktop---Ev-Temizliği" transform="translate(-155.000000, -3000.000000)" fill="#393939" fill-rule="nonzero">
            <g id="uyelik" transform="translate(155.000000, 3000.000000)">
                <path d="M11.2488688,13.4339367 C7.76470588,13.4339367 4.87782805,10.4486174 4.87782805,6.71696833 C4.87782805,2.98531926 7.76470588,0 11.2488688,0 C14.7330317,0 17.6199095,2.98531926 17.6199095,6.71696833 C17.6199095,10.4486174 14.7330317,13.4339367 11.2488688,13.4339367 Z M11.2488688,1.49265963 C8.56108597,1.49265963 6.47058824,3.91823152 6.47058824,6.71696833 C6.47058824,9.51570513 8.56108597,11.941277 11.2488688,11.941277 C13.9366516,11.941277 16.0271493,9.51570513 16.0271493,6.71696833 C16.0271493,3.91823152 13.9366516,1.49265963 11.2488688,1.49265963 Z" id="Shape"></path>
                <path d="M20.8054299,21.2598633 C20.3076923,21.2598633 20.0090498,21.0299651 20.0090498,20.6468015 L20.0090498,16.5086345 C20.0090498,14.2096528 17.6199095,12.3704675 14.6334842,12.3704675 L14.1357466,12.3704675 C13.638009,12.3704675 13.3393665,12.1405693 13.3393665,11.7574057 C13.3393665,11.3742421 13.638009,11.1443439 14.1357466,11.1443439 L14.7330317,11.1443439 C18.5158371,11.1443439 21.7013575,13.596591 21.7013575,16.5086345 L21.7013575,20.6468015 C21.60181,21.0299651 21.2036199,21.2598633 20.8054299,21.2598633 Z" id="Shape"></path>
                <path d="M1.69230769,21.2598633 C1.19457014,21.2598633 0.895927602,21.0299651 0.895927602,20.6468015 L0.895927602,16.5086345 C0.895927602,13.596591 4.08144796,11.1443439 7.86425339,11.1443439 L8.46153846,11.1443439 C8.95927602,11.1443439 9.25791855,11.3742421 9.25791855,11.7574057 C9.25791855,12.1405693 8.95927602,12.3704675 8.46153846,12.3704675 L7.86425339,12.3704675 C4.87782805,12.3704675 2.48868778,14.2096528 2.48868778,16.5086345 L2.48868778,20.6468015 C2.48868778,21.0299651 2.09049774,21.2598633 1.69230769,21.2598633 Z" id="Shape"></path>
                <path d="M1.69230769,21.2598633 C1.19457014,21.2598633 0.895927602,21.0299651 0.895927602,20.6468015 L0.895927602,16.5086345 C0.895927602,13.596591 4.08144796,11.1443439 7.86425339,11.1443439 L8.46153846,11.1443439 C8.95927602,11.1443439 9.25791855,11.3742421 9.25791855,11.7574057 C9.25791855,12.1405693 8.95927602,12.3704675 8.46153846,12.3704675 L7.86425339,12.3704675 C4.87782805,12.3704675 2.48868778,14.2096528 2.48868778,16.5086345 L2.48868778,20.6468015 C2.48868778,21.0299651 2.09049774,21.2598633 1.69230769,21.2598633 Z" id="Shape"></path>
            </g>
        </g>
    </g>
</svg>