<svg xmlns="http://www.w3.org/2000/svg" version="1.1" xmlns:xlink="http://www.w3.org/1999/xlink" xmlns:svgjs="http://svgjs.com/svgjs" width="1440" height="560" preserveAspectRatio="none" viewBox="0 0 1440 560"><g mask="url(&quot;#SvgjsMask1593&quot;)" fill="none"><rect width="1440" height="560" x="0" y="0" fill="url(#SvgjsLinearGradient1594)"></rect><use xlink:href="#SvgjsSymbol1601" x="0" y="0"></use><use xlink:href="#SvgjsSymbol1601" x="720" y="0"></use></g><defs><mask id="SvgjsMask1593"><rect width="1440" height="560" fill="#ffffff"></rect></mask><linearGradient x1="15.28%" y1="-39.29%" x2="84.72%" y2="139.29%" gradientUnits="userSpaceOnUse" id="SvgjsLinearGradient1594"><stop stop-color="#0e2a47" offset="0"></stop><stop stop-color="rgba(1, 71, 160, 1)" offset="1"></stop></linearGradient><path d="M-1 0 a1 1 0 1 0 2 0 a1 1 0 1 0 -2 0z" id="SvgjsPath1597"></path><path d="M-3 0 a3 3 0 1 0 6 0 a3 3 0 1 0 -6 0z" id="SvgjsPath1600"></path><path d="M-5 0 a5 5 0 1 0 10 0 a5 5 0 1 0 -10 0z" id="SvgjsPath1595"></path><path d="M2 -2 L-2 2z" id="SvgjsPath1598"></path><path d="M6 -6 L-6 6z" id="SvgjsPath1596"></path><path d="M30 -30 L-30 30z" id="SvgjsPath1599"></path></defs><symbol id="SvgjsSymbol1601"><use xlink:href="#SvgjsPath1595" x="30" y="30" stroke="#1c538e"></use><use xlink:href="#SvgjsPath1596" x="30" y="90" stroke="#1c538e"></use><use xlink:href="#SvgjsPath1596" x="30" y="150" stroke="#1c538e"></use><use xlink:href="#SvgjsPath1597" x="30" y="210" stroke="#1c538e"></use><use xlink:href="#SvgjsPath1595" x="30" y="270" stroke="#1c538e"></use><use xlink:href="#SvgjsPath1595" x="30" y="330" stroke="#1c538e"></use><use xlink:href="#SvgjsPath1596" x="30" y="390" stroke="#1c538e"></use><use xlink:href="#SvgjsPath1595" x="30" y="450" stroke="#1c538e"></use><use xlink:href="#SvgjsPath1595" x="30" y="510" stroke="#1c538e"></use><use xlink:href="#SvgjsPath1596" x="30" y="570" stroke="#1c538e"></use><use xlink:href="#SvgjsPath1595" x="90" y="30" stroke="#1c538e"></use><use xlink:href="#SvgjsPath1598" x="90" y="90" stroke="#1c538e"></use><use xlink:href="#SvgjsPath1596" x="90" y="150" stroke="#1c538e"></use><use xlink:href="#SvgjsPath1598" x="90" y="210" stroke="#1c538e"></use><use xlink:href="#SvgjsPath1595" x="90" y="270" stroke="#1c538e"></use><use xlink:href="#SvgjsPath1598" x="90" y="330" stroke="#1c538e"></use><use xlink:href="#SvgjsPath1595" x="90" y="390" stroke="#1c538e"></use><use xlink:href="#SvgjsPath1598" x="90" y="450" stroke="#1c538e"></use><use xlink:href="#SvgjsPath1597" x="90" y="510" stroke="#1c538e"></use><use xlink:href="#SvgjsPath1595" x="90" y="570" stroke="#1c538e"></use><use xlink:href="#SvgjsPath1597" x="150" y="30" stroke="#1c538e"></use><use xlink:href="#SvgjsPath1599" x="150" y="90" stroke="#1c538e" stroke-width="3"></use><use xlink:href="#SvgjsPath1595" x="150" y="150" stroke="#1c538e"></use><use xlink:href="#SvgjsPath1598" x="150" y="210" stroke="#1c538e"></use><use xlink:href="#SvgjsPath1595" x="150" y="270" stroke="#1c538e"></use><use xlink:href="#SvgjsPath1596" x="150" y="330" stroke="#1c538e"></use><use xlink:href="#SvgjsPath1599" x="150" y="390" stroke="#1c538e" stroke-width="3"></use><use xlink:href="#SvgjsPath1596" x="150" y="450" stroke="#1c538e"></use><use xlink:href="#SvgjsPath1597" x="150" y="510" stroke="#1c538e"></use><use xlink:href="#SvgjsPath1600" x="150" y="570" stroke="#1c538e"></use><use xlink:href="#SvgjsPath1595" x="210" y="30" stroke="#1c538e"></use><use xlink:href="#SvgjsPath1595" x="210" y="90" stroke="#1c538e"></use><use xlink:href="#SvgjsPath1597" x="210" y="150" stroke="#1c538e"></use><use xlink:href="#SvgjsPath1600" x="210" y="210" stroke="#1c538e"></use><use xlink:href="#SvgjsPath1596" x="210" y="270" stroke="#1c538e"></use><use xlink:href="#SvgjsPath1598" x="210" y="330" stroke="#1c538e"></use><use xlink:href="#SvgjsPath1600" x="210" y="390" stroke="#1c538e"></use><use xlink:href="#SvgjsPath1595" x="210" y="450" stroke="#1c538e"></use><use xlink:href="#SvgjsPath1597" x="210" y="510" stroke="#1c538e"></use><use xlink:href="#SvgjsPath1596" x="210" y="570" stroke="#1c538e"></use><use xlink:href="#SvgjsPath1599" x="270" y="30" stroke="#1c538e" stroke-width="3"></use><use xlink:href="#SvgjsPath1600" x="270" y="90" stroke="#1c538e"></use><use xlink:href="#SvgjsPath1600" x="270" y="150" stroke="#1c538e"></use><use xlink:href="#SvgjsPath1596" x="270" y="210" stroke="#1c538e"></use><use xlink:href="#SvgjsPath1600" x="270" y="270" stroke="#1c538e"></use><use xlink:href="#SvgjsPath1597" x="270" y="330" stroke="#1c538e"></use><use xlink:href="#SvgjsPath1595" x="270" y="390" stroke="#1c538e"></use><use xlink:href="#SvgjsPath1600" x="270" y="450" stroke="#1c538e"></use><use xlink:href="#SvgjsPath1596" x="270" y="510" stroke="#1c538e"></use><use xlink:href="#SvgjsPath1596" x="270" y="570" stroke="#1c538e"></use><use xlink:href="#SvgjsPath1595" x="330" y="30" stroke="#1c538e"></use><use xlink:href="#SvgjsPath1600" x="330" y="90" stroke="#1c538e"></use><use xlink:href="#SvgjsPath1595" x="330" y="150" stroke="#1c538e"></use><use xlink:href="#SvgjsPath1595" x="330" y="210" stroke="#1c538e"></use><use xlink:href="#SvgjsPath1597" x="330" y="270" stroke="#1c538e"></use><use xlink:href="#SvgjsPath1595" x="330" y="330" stroke="#1c538e"></use><use xlink:href="#SvgjsPath1596" x="330" y="390" stroke="#1c538e"></use><use xlink:href="#SvgjsPath1597" x="330" y="450" stroke="#1c538e"></use><use xlink:href="#SvgjsPath1600" x="330" y="510" stroke="#1c538e"></use><use xlink:href="#SvgjsPath1596" x="330" y="570" stroke="#1c538e"></use><use xlink:href="#SvgjsPath1597" x="390" y="30" stroke="#1c538e"></use><use xlink:href="#SvgjsPath1597" x="390" y="90" stroke="#1c538e"></use><use xlink:href="#SvgjsPath1595" x="390" y="150" stroke="#1c538e"></use><use xlink:href="#SvgjsPath1597" x="390" y="210" stroke="#1c538e"></use><use xlink:href="#SvgjsPath1596" x="390" y="270" stroke="#1c538e"></use><use xlink:href="#SvgjsPath1595" x="390" y="330" stroke="#1c538e"></use><use xlink:href="#SvgjsPath1596" x="390" y="390" stroke="#1c538e"></use><use xlink:href="#SvgjsPath1596" x="390" y="450" stroke="#1c538e"></use><use xlink:href="#SvgjsPath1595" x="390" y="510" stroke="#1c538e"></use><use xlink:href="#SvgjsPath1595" x="390" y="570" stroke="#1c538e"></use><use xlink:href="#SvgjsPath1595" x="450" y="30" stroke="#1c538e"></use><use xlink:href="#SvgjsPath1596" x="450" y="90" stroke="#1c538e"></use><use xlink:href="#SvgjsPath1596" x="450" y="150" stroke="#1c538e"></use><use xlink:href="#SvgjsPath1595" x="450" y="210" stroke="#1c538e"></use><use xlink:href="#SvgjsPath1596" x="450" y="270" stroke="#1c538e"></use><use xlink:href="#SvgjsPath1596" x="450" y="330" stroke="#1c538e"></use><use xlink:href="#SvgjsPath1596" x="450" y="390" stroke="#1c538e"></use><use xlink:href="#SvgjsPath1597" x="450" y="450" stroke="#1c538e"></use><use xlink:href="#SvgjsPath1597" x="450" y="510" stroke="#1c538e"></use><use xlink:href="#SvgjsPath1596" x="450" y="570" stroke="#1c538e"></use><use xlink:href="#SvgjsPath1596" x="510" y="30" stroke="#1c538e"></use><use xlink:href="#SvgjsPath1595" x="510" y="90" stroke="#1c538e"></use><use xlink:href="#SvgjsPath1596" x="510" y="150" stroke="#1c538e"></use><use xlink:href="#SvgjsPath1596" x="510" y="210" stroke="#1c538e"></use><use xlink:href="#SvgjsPath1600" x="510" y="270" stroke="#1c538e"></use><use xlink:href="#SvgjsPath1596" x="510" y="330" stroke="#1c538e"></use><use xlink:href="#SvgjsPath1599" x="510" y="390" stroke="#1c538e" stroke-width="3"></use><use xlink:href="#SvgjsPath1595" x="510" y="450" stroke="#1c538e"></use><use xlink:href="#SvgjsPath1596" x="510" y="510" stroke="#1c538e"></use><use xlink:href="#SvgjsPath1596" x="510" y="570" stroke="#1c538e"></use><use xlink:href="#SvgjsPath1596" x="570" y="30" stroke="#1c538e"></use><use xlink:href="#SvgjsPath1596" x="570" y="90" stroke="#1c538e"></use><use xlink:href="#SvgjsPath1596" x="570" y="150" stroke="#1c538e"></use><use xlink:href="#SvgjsPath1597" x="570" y="210" stroke="#1c538e"></use><use xlink:href="#SvgjsPath1595" x="570" y="270" stroke="#1c538e"></use><use xlink:href="#SvgjsPath1595" x="570" y="330" stroke="#1c538e"></use><use xlink:href="#SvgjsPath1596" x="570" y="390" stroke="#1c538e"></use><use xlink:href="#SvgjsPath1596" x="570" y="450" stroke="#1c538e"></use><use xlink:href="#SvgjsPath1597" x="570" y="510" stroke="#1c538e"></use><use xlink:href="#SvgjsPath1598" x="570" y="570" stroke="#1c538e"></use><use xlink:href="#SvgjsPath1595" x="630" y="30" stroke="#1c538e"></use><use xlink:href="#SvgjsPath1596" x="630" y="90" stroke="#1c538e"></use><use xlink:href="#SvgjsPath1599" x="630" y="150" stroke="#1c538e" stroke-width="3"></use><use xlink:href="#SvgjsPath1595" x="630" y="210" stroke="#1c538e"></use><use xlink:href="#SvgjsPath1596" x="630" y="270" stroke="#1c538e"></use><use xlink:href="#SvgjsPath1595" x="630" y="330" stroke="#1c538e"></use><use xlink:href="#SvgjsPath1596" x="630" y="390" stroke="#1c538e"></use><use xlink:href="#SvgjsPath1600" x="630" y="450" stroke="#1c538e"></use><use xlink:href="#SvgjsPath1599" x="630" y="510" stroke="#1c538e" stroke-width="3"></use><use xlink:href="#SvgjsPath1600" x="630" y="570" stroke="#1c538e"></use><use xlink:href="#SvgjsPath1595" x="690" y="30" stroke="#1c538e"></use><use xlink:href="#SvgjsPath1597" x="690" y="90" stroke="#1c538e"></use><use xlink:href="#SvgjsPath1595" x="690" y="150" stroke="#1c538e"></use><use xlink:href="#SvgjsPath1600" x="690" y="210" stroke="#1c538e"></use><use xlink:href="#SvgjsPath1600" x="690" y="270" stroke="#1c538e"></use><use xlink:href="#SvgjsPath1596" x="690" y="330" stroke="#1c538e"></use><use xlink:href="#SvgjsPath1596" x="690" y="390" stroke="#1c538e"></use><use xlink:href="#SvgjsPath1596" x="690" y="450" stroke="#1c538e"></use><use xlink:href="#SvgjsPath1596" x="690" y="510" stroke="#1c538e"></use><use xlink:href="#SvgjsPath1596" x="690" y="570" stroke="#1c538e"></use></symbol></svg>