<svg xmlns="http://www.w3.org/2000/svg" version="1.1" xmlns:xlink="http://www.w3.org/1999/xlink" xmlns:svgjs="http://svgjs.com/svgjs" width="1440" height="560" preserveAspectRatio="none" viewBox="0 0 1440 560"><g mask="url(&quot;#SvgjsMask1030&quot;)" fill="none"><rect width="1440" height="560" x="0" y="0" fill="#0e2a47"></rect><path d="M749 271L1150 672" stroke-width="8" stroke="url(#SvgjsLinearGradient1031)" stroke-linecap="round" class="BottomRight"></path><path d="M793 163L1152 522" stroke-width="8" stroke="url(#SvgjsLinearGradient1032)" stroke-linecap="round" class="TopLeft"></path><path d="M1186 304L1578 696" stroke-width="8" stroke="url(#SvgjsLinearGradient1031)" stroke-linecap="round" class="BottomRight"></path><path d="M993 360L834 201" stroke-width="10" stroke="url(#SvgjsLinearGradient1031)" stroke-linecap="round" class="BottomRight"></path><path d="M185 74L512 401" stroke-width="6" stroke="url(#SvgjsLinearGradient1032)" stroke-linecap="round" class="TopLeft"></path><path d="M1400 338L1135 73" stroke-width="8" stroke="url(#SvgjsLinearGradient1032)" stroke-linecap="round" class="TopLeft"></path><path d="M892 230L600 -62" stroke-width="8" stroke="url(#SvgjsLinearGradient1032)" stroke-linecap="round" class="TopLeft"></path><path d="M955 25L634 -296" stroke-width="10" stroke="url(#SvgjsLinearGradient1032)" stroke-linecap="round" class="TopLeft"></path><path d="M431 67L684 320" stroke-width="10" stroke="url(#SvgjsLinearGradient1032)" stroke-linecap="round" class="TopLeft"></path><path d="M1250 6L887 -357" stroke-width="10" stroke="url(#SvgjsLinearGradient1031)" stroke-linecap="round" class="BottomRight"></path><path d="M851 85L1073 307" stroke-width="8" stroke="url(#SvgjsLinearGradient1031)" stroke-linecap="round" class="BottomRight"></path><path d="M876 330L1208 662" stroke-width="6" stroke="url(#SvgjsLinearGradient1031)" stroke-linecap="round" class="BottomRight"></path><path d="M817 65L639 -113" stroke-width="6" stroke="url(#SvgjsLinearGradient1031)" stroke-linecap="round" class="BottomRight"></path><path d="M734 209L1077 552" stroke-width="10" stroke="url(#SvgjsLinearGradient1031)" stroke-linecap="round" class="BottomRight"></path><path d="M483 496L76 89" stroke-width="10" stroke="url(#SvgjsLinearGradient1032)" stroke-linecap="round" class="TopLeft"></path><path d="M316 297L162 143" stroke-width="10" stroke="url(#SvgjsLinearGradient1032)" stroke-linecap="round" class="TopLeft"></path><path d="M405 372L620 587" stroke-width="6" stroke="url(#SvgjsLinearGradient1031)" stroke-linecap="round" class="BottomRight"></path><path d="M608 67L419 -122" stroke-width="8" stroke="url(#SvgjsLinearGradient1032)" stroke-linecap="round" class="TopLeft"></path><path d="M12 497L336 821" stroke-width="10" stroke="url(#SvgjsLinearGradient1031)" stroke-linecap="round" class="BottomRight"></path><path d="M451 535L756 840" stroke-width="8" stroke="url(#SvgjsLinearGradient1032)" stroke-linecap="round" class="TopLeft"></path><path d="M696 388L305 -3" stroke-width="10" stroke="url(#SvgjsLinearGradient1032)" stroke-linecap="round" class="TopLeft"></path><path d="M1204 128L980 -96" stroke-width="10" stroke="url(#SvgjsLinearGradient1031)" stroke-linecap="round" class="BottomRight"></path><path d="M835 438L979 582" stroke-width="8" stroke="url(#SvgjsLinearGradient1032)" stroke-linecap="round" class="TopLeft"></path><path d="M1037 547L1386 896" stroke-width="10" stroke="url(#SvgjsLinearGradient1032)" stroke-linecap="round" class="TopLeft"></path><path d="M929 401L1209 681" stroke-width="10" stroke="url(#SvgjsLinearGradient1032)" stroke-linecap="round" class="TopLeft"></path><path d="M811 352L427 -32" stroke-width="6" stroke="url(#SvgjsLinearGradient1032)" stroke-linecap="round" class="TopLeft"></path><path d="M767 511L1074 818" stroke-width="10" stroke="url(#SvgjsLinearGradient1031)" stroke-linecap="round" class="BottomRight"></path><path d="M1431 181L1836 586" stroke-width="10" stroke="url(#SvgjsLinearGradient1032)" stroke-linecap="round" class="TopLeft"></path><path d="M516 470L929 883" stroke-width="10" stroke="url(#SvgjsLinearGradient1031)" stroke-linecap="round" class="BottomRight"></path><path d="M346 89L22 -235" stroke-width="8" stroke="url(#SvgjsLinearGradient1031)" stroke-linecap="round" class="BottomRight"></path><path d="M164 166L-2 0" stroke-width="8" stroke="url(#SvgjsLinearGradient1032)" stroke-linecap="round" class="TopLeft"></path><path d="M1086 309L711 -66" stroke-width="10" stroke="url(#SvgjsLinearGradient1032)" stroke-linecap="round" class="TopLeft"></path><path d="M1053 105L694 -254" stroke-width="6" stroke="url(#SvgjsLinearGradient1032)" stroke-linecap="round" class="TopLeft"></path><path d="M506 495L902 891" stroke-width="8" stroke="url(#SvgjsLinearGradient1032)" stroke-linecap="round" class="TopLeft"></path><path d="M564 263L849 548" stroke-width="6" stroke="url(#SvgjsLinearGradient1032)" stroke-linecap="round" class="TopLeft"></path><path d="M101 555L-119 335" stroke-width="10" stroke="url(#SvgjsLinearGradient1031)" stroke-linecap="round" class="BottomRight"></path><path d="M987 535L1193 741" stroke-width="8" stroke="url(#SvgjsLinearGradient1031)" stroke-linecap="round" class="BottomRight"></path><path d="M711 17L961 267" stroke-width="8" stroke="url(#SvgjsLinearGradient1032)" stroke-linecap="round" class="TopLeft"></path><path d="M228 4L2 -222" stroke-width="6" stroke="url(#SvgjsLinearGradient1031)" stroke-linecap="round" class="BottomRight"></path></g><defs><mask id="SvgjsMask1030"><rect width="1440" height="560" fill="#ffffff"></rect></mask><linearGradient x1="0%" y1="0%" x2="100%" y2="100%" id="SvgjsLinearGradient1031"><stop stop-color="rgba(28, 83, 142, 0)" offset="0"></stop><stop stop-color="#1c538e" offset="1"></stop></linearGradient><linearGradient x1="100%" y1="100%" x2="0%" y2="0%" id="SvgjsLinearGradient1032"><stop stop-color="rgba(28, 83, 142, 0)" offset="0"></stop><stop stop-color="#1c538e" offset="1"></stop></linearGradient></defs></svg>